<?xml version="1.0" encoding="utf-8"?>
<!-- Generator: Adobe Illustrator 23.0.6, SVG Export Plug-In . SVG Version: 6.00 Build 0)  -->
<svg version="1.1" id="Layer_1" xmlns="http://www.w3.org/2000/svg" xmlns:xlink="http://www.w3.org/1999/xlink" x="0px" y="0px"
	 viewBox="0 0 1158.1 581.6" style="enable-background:new 0 0 1158.1 581.6;" xml:space="preserve">
<style type="text/css">
	.st0{fill:#142E47;stroke:#274961;stroke-width:15;stroke-miterlimit:10;}
	.st1{fill:#FFFFFF;}
	.st2{opacity:0.3;fill-rule:evenodd;clip-rule:evenodd;fill:#14202D;stroke:#14202D;stroke-width:10;stroke-miterlimit:10;}
	.st3{fill:#FDFEFF;}
</style>
<g>
	<path class="st0" d="M20.4,105.2l258.2-92.1l265,90.4l-42.8,341.4L278.6,567.8L60.1,446.5L20.4,105.2z"/>
	<g>
		<polygon class="st1" points="180.1,331.5 139.2,286.3 176.9,244.9 148.4,244.9 124.9,270.5 101.7,244.9 73.5,244.9 110.4,286.2 
			68.6,331.4 98,331.4 124.7,302.1 150.9,331.4 		"/>
		<polygon class="st1" points="312.8,360.2 278.8,390 244.6,359.9 244.6,468.5 278.3,500.8 278.9,500.8 312.8,468.5 		"/>
		<path class="st1" d="M236.7,68L236.7,68l0,2.2c0,3,1.5,5.8,3.9,7.6l10.9,7.8c4.9,3.5,7.8,6.6,7.8,12.6l0.1,71.8
			c0,2.1-1.4,4-3.4,4.7l-50,9.2c-2.5,0.8-4.2,3.2-4.2,5.9l0,6.3c0,3.4,2.8,6.2,6.2,6.2l55,0l15.4-13.6l15.4,13.6l54.5,0
			c3.4,0,6.2-2.8,6.2-6.2v0l0-6.3c0-2.7-1.7-5-4.2-5.9l-50.3-9.2c-2-0.7-3.4-2.6-3.4-4.7l-0.1-71.6c0-6,2.9-9.2,7.8-12.7l11.1-8
			c2.4-1.7,3.9-4.6,3.9-7.6l0-2.2c0-2.8-1.9-5.1-4.4-5.9h-73.8C238.6,62.9,236.7,65.2,236.7,68z"/>
	</g>
	<polygon class="st2" points="282.7,13.2 282.7,567.8 504.8,444.9 547.6,103.5 	"/>
</g>
<g>
	<g>
		<g>
			<polygon class="st1" points="386.9,221.3 382.5,242.8 391.1,242.8 			"/>
			<polygon class="st1" points="386.7,264.2 391.1,242.8 382.5,242.8 			"/>
		</g>
		<g>
			<polygon class="st1" points="365.4,242.7 386.8,247.1 386.8,238.5 			"/>
			<polygon class="st1" points="408.3,242.9 386.8,238.5 386.8,247.1 			"/>
		</g>
	</g>
	<g>
		<path class="st1" d="M390,237.1c0,0,0.4,2.1,2.8,2.6l-3,0.1L390,237.1z"/>
		<path class="st1" d="M381.1,239.6c0,0,2.1-0.4,2.6-2.8l0.1,3L381.1,239.6z"/>
		<path class="st1" d="M390,248.5c0,0,0.4-2.1,2.8-2.6l-3-0.1L390,248.5z"/>
		<path class="st1" d="M381.1,245.9c0,0,2.1,0.4,2.6,2.8l0.1-3L381.1,245.9z"/>
	</g>
</g>
<g>
	<g>
		<g>
			<polygon class="st1" points="368.1,253 365.4,266.3 370.6,266.3 			"/>
			<polygon class="st1" points="368,279.5 370.6,266.3 365.4,266.3 			"/>
		</g>
		<g>
			<polygon class="st1" points="354.8,266.2 368,268.9 368,263.6 			"/>
			<polygon class="st1" points="381.2,266.3 368,263.6 368,268.9 			"/>
		</g>
	</g>
	<g>
		<path class="st1" d="M370,262.8c0,0,0.3,1.3,1.7,1.6l-1.8,0.1L370,262.8z"/>
		<path class="st1" d="M364.5,264.3c0,0,1.3-0.3,1.6-1.7l0.1,1.8L364.5,264.3z"/>
		<path class="st1" d="M370,269.8c0,0,0.3-1.3,1.7-1.6l-1.8-0.1L370,269.8z"/>
		<path class="st1" d="M364.5,268.2c0,0,1.3,0.3,1.6,1.7l0.1-1.8L364.5,268.2z"/>
	</g>
</g>
<g>
	<path class="st1" d="M461.2,332.9l0-1l0-2.7l0.7-0.3c1.5-0.6,1.6-1,1.6-1.6l0,0c0-0.7-0.6-2.1-1.5-3.9l0,0l-6.7-13.1l-48.1-0.1
		l-6.4,13.1c-0.9,1.7-1.7,3.1-1.7,3.9l0,0c0,0.6,0.2,0.9,1.6,1.6l0,0l0.7,0.3l0,0.8l0,3.1l-24.9,0l0-1.1l0-2l0-0.8l0.8-0.3
		c4.1-1.4,5.3-3,7-6.2l0,0l34.3-68.9c0.9-1.8,1.5-3.3,1.5-3.9l0,0c0-0.6-0.2-1.1-1.6-1.7l0,0l-0.7-0.3l0-0.8l0-3l28.2,0l0,1.2l0,2.6
		l-0.7,0.3c-1.4,0.6-1.6,1.1-1.6,1.7l0,0c0,0.8,0.4,2,1.5,3.9l0,0l34.9,67.8c2.1,4,4.4,6.2,7.7,7.4l0,0l0.8,0.3l0,0.8l0,3H461.2
		L461.2,332.9z M413.8,296.2l34.4,0.1L431,261.9L413.8,296.2L413.8,296.2z"/>
</g>
<g>
	<g>
		<polygon class="st3" points="347.9,259.7 278.1,231.8 208.3,259.7 278.1,291.1 		"/>
		<path class="st3" d="M234.5,279.2l0,38.2c0,11.6,19.5,20.9,43.6,20.9c24.1,0,43.6-9.4,43.6-21l0-38.2l-43.6,19.6L234.5,279.2z"/>
		<polygon class="st3" points="342.7,269.7 335.7,272.8 335.7,306.8 332.2,310.3 332.2,331.2 339.2,331.2 346.2,331.2 346.2,310.3 
			342.7,306.8 		"/>
	</g>
</g>
</svg>
