<?xml version="1.0" standalone="no"?>
<!DOCTYPE svg PUBLIC "-//W3C//DTD SVG 20010904//EN"
 "http://www.w3.org/TR/2001/REC-SVG-20010904/DTD/svg10.dtd">
<svg version="1.0" xmlns="http://www.w3.org/2000/svg"
 width="861.000000pt" height="861.000000pt" viewBox="0 0 861.000000 861.000000"
 preserveAspectRatio="xMidYMid meet">
<metadata>
Created by potrace 1.11, written by Peter Selinger 2001-2013
</metadata>
<g transform="translate(0.000000,861.000000) scale(0.100000,-0.100000)"
fill="#000000" stroke="none">
<path d="M4229 8570 c-8 -4 -313 -115 -679 -245 -366 -131 -714 -255 -775
-277 -60 -22 -128 -46 -150 -53 -22 -7 -123 -43 -225 -80 -102 -37 -221 -79
-265 -95 -44 -15 -138 -49 -210 -75 -71 -26 -141 -51 -155 -55 -14 -5 -140
-50 -280 -100 -422 -151 -504 -181 -520 -185 -8 -2 -46 -16 -85 -30 -38 -15
-113 -41 -165 -60 -52 -18 -140 -49 -195 -70 -55 -20 -107 -38 -115 -40 -8 -2
-28 -8 -44 -14 -28 -11 -28 -12 -22 -74 4 -34 9 -80 11 -102 2 -22 7 -60 10
-85 2 -25 7 -67 11 -95 9 -81 18 -159 29 -245 3 -19 7 -60 10 -90 3 -30 7 -64
9 -75 2 -12 7 -50 10 -86 4 -36 8 -76 11 -90 2 -13 6 -51 10 -84 3 -33 8 -78
11 -100 3 -22 7 -58 9 -80 1 -22 5 -56 9 -75 3 -19 8 -62 11 -95 4 -33 8 -73
10 -90 2 -16 11 -91 20 -165 8 -74 18 -151 20 -170 3 -20 7 -58 10 -85 2 -28
6 -68 9 -90 8 -61 26 -214 32 -270 3 -27 7 -61 9 -75 4 -28 12 -96 21 -180 3
-30 7 -66 9 -80 2 -14 6 -52 10 -85 3 -33 8 -71 10 -85 2 -14 6 -54 10 -90 4
-36 8 -76 10 -90 6 -38 20 -162 30 -260 3 -25 7 -61 10 -80 3 -19 7 -57 10
-85 7 -62 14 -114 20 -162 2 -21 7 -60 9 -88 6 -61 14 -127 26 -225 5 -41 12
-100 15 -130 4 -30 8 -66 10 -80 2 -14 7 -52 10 -85 3 -33 7 -71 10 -85 4 -24
11 -82 20 -180 5 -44 12 -106 21 -165 2 -16 6 -48 8 -70 4 -47 16 -147 21
-190 2 -16 7 -59 11 -95 4 -36 8 -72 9 -80 2 -8 6 -49 10 -91 4 -42 10 -81 14
-87 5 -8 246 -145 501 -284 30 -17 69 -38 85 -48 17 -10 51 -29 78 -44 122
-67 314 -174 377 -209 43 -24 310 -172 365 -202 22 -12 117 -65 210 -117 94
-52 197 -110 230 -128 114 -63 140 -78 225 -125 47 -26 114 -63 150 -82 36
-20 94 -52 130 -73 36 -20 90 -51 120 -67 87 -47 346 -191 450 -250 19 -11 60
-33 90 -50 109 -60 166 -92 228 -127 35 -20 69 -36 75 -36 7 1 30 12 52 25 22
13 66 38 99 55 32 17 74 41 95 52 20 12 99 56 176 98 77 42 156 86 175 97 34
19 84 47 200 110 54 30 189 105 280 155 101 57 238 133 285 158 28 15 93 51
145 80 52 29 129 71 170 93 41 22 82 46 91 53 8 8 19 14 22 14 4 0 46 22 94
49 49 26 108 60 133 73 355 197 445 246 500 276 36 19 76 41 90 50 14 9 47 28
75 42 81 43 525 289 588 326 32 19 62 34 66 34 12 0 31 25 35 46 2 11 7 48 11
84 4 36 9 72 10 81 2 9 8 61 15 115 6 55 13 110 15 124 2 14 7 50 10 80 3 30
8 66 10 80 5 30 16 124 20 165 2 17 6 50 9 75 23 165 30 223 41 320 4 30 8 66
10 80 2 14 6 48 10 75 3 28 8 66 10 85 2 19 7 60 11 90 3 30 8 62 9 70 2 9 6
43 10 75 4 33 8 71 10 85 2 14 7 48 10 75 4 28 8 61 10 75 2 14 7 52 10 85 3
33 8 71 10 85 2 14 7 43 9 65 3 22 10 78 16 125 6 47 13 101 15 120 8 74 17
146 20 160 2 8 6 44 10 80 4 36 8 72 10 80 1 8 6 42 9 75 4 33 11 87 16 120 5
33 12 89 15 125 4 36 8 72 10 80 2 8 6 44 10 80 3 36 8 72 10 80 2 8 7 44 10
80 4 36 8 72 10 80 2 8 6 44 10 80 4 36 9 73 10 82 2 9 6 43 10 75 3 33 7 70
10 84 2 13 9 67 15 119 6 52 13 106 16 120 2 14 6 50 9 80 3 30 8 66 10 80 2
14 7 52 11 85 3 33 8 69 10 80 2 11 6 45 10 75 3 30 7 67 10 81 2 15 6 47 9
70 3 24 10 80 16 124 13 105 17 139 25 205 3 30 8 66 10 80 1 14 6 52 9 85 4
33 8 67 10 75 14 77 15 99 6 104 -6 4 -88 33 -183 66 -95 32 -333 113 -528
180 -195 67 -393 134 -440 150 -47 16 -245 83 -440 150 -195 67 -393 134 -440
150 -47 16 -164 56 -260 89 -751 256 -1012 345 -1060 361 -30 10 -193 65 -361
123 -187 64 -311 102 -320 97z"/>
</g>
</svg>
